<svg width="1000mm" height="1000mm" viewBox="0 0 1000 1000" xml:space="preserve" xmlns="http://www.w3.org/2000/svg"><path d="M2766 3895c-99-58-183-108-188-113s-7-68-6-140l3-132 193 110 192 111 187-108c103-59 191-110 195-111 5-2 7 58 6 134l-3 138-185 107c-102 59-192 108-200 108s-96-47-194-104z" style="fill:#223f6b;fill-opacity:1" transform="matrix(.34979 0 0 -.34979 -535.379 1400.534)"/><path d="M2500 3404c-250-146-460-268-467-272-9-5-14-146-18-553l-6-546 193-106c106-58 318-178 472-266 153-89 282-161 286-161s122 66 261 146c139 81 269 153 288 161 20 8 118 63 218 121l183 105-4 381c-2 210-5 455-5 546l-1 166-467 269c-256 149-469 271-472 272-3 0-211-118-461-263zm605 75c77-44 143-84 147-87 4-4-60-47-142-94l-150-87-150 87c-82 47-146 90-142 94 9 9 285 168 292 168 3 0 68-36 145-81zm-345-264 200-115 199 115c183 106 202 114 225 103l26-11v-463l173-99c234-134 229-130 225-171-3-33-10-38-198-147l-195-112-5-225-5-224-30-17-30-18-189 110c-104 60-192 109-197 109-4 0-92-49-195-109l-188-109-33 16-33 16-2 225-3 226-195 113-195 112-3 38-2 37 200 115 200 114v231c0 231 0 232 23 243 12 6 23 11 25 11 2 1 93-51 202-114zm-491-876 141-81v-164c0-90-3-164-7-163-5 0-71 37-148 82l-140 82-3 163c-1 94 1 162 7 162 5 0 72-36 150-81zm1539-81-3-162-140-82c-77-45-143-83-147-83-5-1-8 73-8 163v164l138 80c75 45 143 81 150 81 10 1 12-35 10-161z" style="fill:#223f6b;fill-opacity:1" transform="matrix(.34979 0 0 -.34979 -535.379 1400.534)"/><path d="M2640 2870v-70h620v140h-620zM2640 2440v-220h640v160h-520v130h380v150h-500z" style="fill:#223f6b;fill-opacity:1" transform="matrix(.34979 0 0 -.34979 -535.379 1400.534)"/><path d="m1919 3407-194-112-2-225-3-225 63-36c34-20 88-51 120-69l57-32v107l-70 39-70 40v175l1 176 140 80c78 44 144 81 149 83 4 1 39-16 78-38l71-41 46 27 46 26-103 60c-57 33-110 63-119 68-11 7-68-22-210-103zM3686 3450l-117-68 46-26 46-27 71 41c39 22 74 39 78 38 5-2 71-39 149-83l140-80 1-176v-175l-70-40-70-39v-107l58 32c31 18 85 49 119 69l63 36-3 225-2 225-160 93c-88 51-176 101-196 112l-35 18z" style="fill:#6d6e72;fill-opacity:1" transform="matrix(.34979 0 0 -.34979 -535.379 1400.534)"/><path d="m1838 2382-118-67v-453l183-105c100-58 190-109 199-112 12-5 57 16 133 60l116 68-98 57c-54 31-141 82-193 112l-95 54-5 226-5 227zM3958 2224l-3-228-95-54c-52-30-139-81-193-112l-99-58 116-67c72-42 122-65 132-61 9 4 99 54 200 112l184 106v453l-57 33c-32 17-86 48-120 67l-63 36z" style="fill:#223f6b;fill-opacity:1" transform="matrix(.34979 0 0 -.34979 -535.379 1400.534)"/><path d="M2570 1508v-133l195-113 194-112 196 112 195 113v133c0 74-3 132-7 130-5-2-25-12-45-22l-37-19-3-85-3-85-148-84-148-85-147 85-147 85-3 84-3 85-37 19-44 22c-5 2-8-56-8-130z" style="fill:#6d6e72;fill-opacity:1" transform="matrix(.34979 0 0 -.34979 -535.379 1400.534)"/></svg>