<svg id="svg5" xmlns="http://www.w3.org/2000/svg" viewBox="0 0 2459 2824.87"><defs><style>.cls-1{fill:#ffffff}</style></defs><g id="layer1"><g id="g262"><path id="path182" class="cls-1" d="M1225 108c-98.17 57.51-181.45 107.08-186.41 112s-6.94 67.42-6 138.81l3 130.89L1227 380.68l190.37-110.06 185.37 107.08c102.13 58.5 189.38 109.07 193.35 110.06 5 2 6.94-57.51 6-132.86l-3-136.83L1615.63 112C1514.49 53.47 1425.26 4.89 1417.32 4.89S1322.14 51.49 1225 108Z" transform="translate(-187.82 -4.89)"/><path id="path184" class="cls-1" d="M961.22 594.85c-247.88 144.76-456.11 265.73-463 269.69-8.92 5-13.88 144.77-17.84 548.32l-5.95 541.38 191.36 105.1c105.1 57.51 315.31 176.49 468 263.75 151.71 88.24 279.62 159.63 283.58 159.63s121-65.44 258.79-144.76c137.83-80.31 266.72-151.7 285.56-159.64 19.83-7.93 117-62.46 216.16-120l181.45-104.11-4-377.78c-2-208.22-5-451.14-5-541.37l-1-164.6-463-266.72c-253.84-147.74-465-268.7-468-269.69-2.99.03-209.23 117.03-457.11 260.8Zm599.87-74.37c76.35 43.63 141.79 83.29 145.76 86.27 4 4-59.49 46.6-140.8 93.2l-148.73 86.26L1268.59 700c-81.3-46.6-144.76-89.24-140.79-93.2 8.92-8.93 282.58-166.58 289.52-166.58 2.98-.05 67.43 35.64 143.77 80.26ZM1219 782.25l198.3 114 197.32-114c181.45-105.1 200.29-113 223.09-102.13l25.8 10.88v459.08l171.54 98.16c232 132.86 227.06 128.9 223.09 169.55-3 32.72-9.91 37.68-196.32 145.75l-193.35 111.06-5 223.09-5 222.1-29.74 16.86-29.75 17.85-187.4-109.07c-103.12-59.49-190.37-108.08-195.33-108.08-4 0-91.22 48.59-193.35 108.08l-186.41 108.07-32.72-15.86-32.72-15.86-2-223.1-3-224.08-193.22-112.02-193.35-111-3-37.68-2-36.68 198.31-114 198.3-113v-229c0-229 0-230 22.81-240.94 11.9-6 22.8-10.91 24.79-10.91 2.02-1.15 92.25 50.41 200.31 112.88Zm-486.83 868.58L872 1731.14v162.61c0 89.24-3 162.61-6.94 161.62-5 0-70.4-36.68-146.75-81.3l-138.81-81.31-3-161.62c-1-93.2 1-160.63 7-160.63 4.9 0 71.34 35.7 148.67 80.32Zm1526 80.31-3 160.63-138.82 81.31c-76.35 44.62-141.79 82.29-145.75 82.29-5 1-7.94-72.38-7.94-161.62v-162.61l136.84-79.32c74.36-44.62 141.78-80.31 148.73-80.31 9.91-1 11.89 34.7 9.91 159.63Z" transform="translate(-187.82 -4.89)"/><path id="path186" class="cls-1" d="M1100 1124.33v69.4h614.75v-138.81H1100Z" transform="translate(-187.82 -4.89)"/><path id="path188" class="cls-1" d="M1100 1550.68v218.14h634.58v-158.64H1219v-128.9h376.8v-148.73H1100Z" transform="translate(-187.82 -4.89)"/><path id="path190" class="cls-1" d="M385.14 591.87 192.78 702.93 190.8 926l-3 223.09 62.47 35.7c33.71 19.83 87.26 50.57 119 68.41l56.52 31.8v-106.14l-69.41-38.67-69.38-39.66V927l1-174.51 138.81-79.32c77.34-43.63 142.78-80.31 147.74-82.3 4-1 38.67 15.87 77.34 37.68l70.4 40.65 45.61-26.77 45.61-25.78-102.16-59.48c-56.51-32.72-109.07-62.47-118-67.42-10.9-6.94-67.41 21.81-208.21 102.12Z" transform="translate(-187.82 -4.89)"/><path id="path192" class="cls-1" d="m2137.17 549.24-116 67.42 45.61 25.78 45.61 26.77 70.39-40.65c38.67-21.81 73.38-38.67 77.34-37.68 5 2 70.4 38.67 147.74 82.3l138.82 79.32 1 174.51v173.52l-69.41 39.66-69.41 38.67V1285l57.51-31.73c30.74-17.84 84.28-48.58 118-68.41l62.47-35.7-3-223.09-2-223.09-158.64-92.22c-87.26-50.57-174.51-100.14-194.34-111l-34.71-17.85Z" transform="translate(-187.82 -4.89)"/><path id="path194" class="cls-1" d="m304.83 1608.19-117 66.44v449.16l181.44 104.11c99.16 57.51 188.4 108.08 197.32 111 11.9 5 56.52-15.86 131.87-59.49l115-67.42-97.17-56.52c-53.54-30.74-139.81-81.31-191.36-111l-94.2-53.55-5-224.08-5-225.08Z" transform="translate(-187.82 -4.89)"/><path id="path196" class="cls-1" d="m2406.87 1764.85-3 226.07-94.2 53.55c-51.56 29.74-137.82 80.31-191.36 111l-98.14 57.53 115 66.43c71.39 41.64 121 64.45 130.88 60.48 8.93-4 98.16-53.54 198.31-111.05l182.44-105.1v-449.13l-56.52-32.73c-31.73-16.85-85.27-47.59-119-66.43l-62.47-35.69Z" transform="translate(-187.82 -4.89)"/><path id="path198" class="cls-1" d="M1030.63 2474.79v131.87L1224 2718.71l192.36 111.05 194.34-111.05 193.3-112.05v-131.87c0-73.37-3-130.88-6.94-128.9-5 2-24.79 11.9-44.62 21.82l-36.69 18.83-3 84.28-3 84.28-146.74 83.29-146.75 84.28-145.75-84.28-145.76-84.28-3-83.29-3-84.28-36.68-18.83-43.63-21.82c-4.84-1.98-7.81 55.53-7.81 128.9Z" transform="translate(-187.82 -4.89)"/></g></g></svg>